<?xml version="1.0" standalone="no"?><!DOCTYPE svg PUBLIC "-//W3C//DTD SVG 1.1//EN" "http://www.w3.org/Graphics/SVG/1.1/DTD/svg11.dtd"><svg class="icon" width="200px" height="200.00px" viewBox="0 0 1024 1024" version="1.1" xmlns="http://www.w3.org/2000/svg"><path d="M230.4 89.6v64c0 19.2 12.8 32 25.6 38.4 19.2 12.8 44.8 12.8 64 0 12.8-6.4 19.2-19.2 19.2-38.4V83.2h345.6v64c0 25.6 12.8 38.4 32 44.8 19.2 6.4 38.4 6.4 57.6-6.4 12.8-6.4 19.2-25.6 19.2-38.4v-64h89.6c32 0 64 12.8 89.6 38.4 12.8 19.2 19.2 38.4 19.2 57.6v742.4c0 51.2-38.4 89.6-76.8 96-12.8 0-19.2 6.4-32 6.4h-736c-25.6 0-51.2-6.4-76.8-25.6C44.8 979.2 32 953.6 32 928V185.6c0-57.6 38.4-89.6 83.2-96h115.2c0-6.4 0 0 0 0z m710.4 160H83.2V928c0 6.4 6.4 19.2 6.4 25.6 12.8 6.4 25.6 12.8 38.4 12.8h780.8c19.2 0 32-19.2 32-38.4V249.6zM313.6 83.2v57.6c0 19.2-12.8 25.6-25.6 25.6s-25.6-6.4-25.6-19.2V25.6C262.4 6.4 268.8 0 288 0c6.4 0 12.8 0 19.2 6.4 6.4 6.4 6.4 6.4 6.4 19.2v57.6z m396.8 0V25.6c0-19.2 12.8-25.6 32-25.6 12.8 0 19.2 6.4 19.2 19.2v121.6c0 12.8-12.8 19.2-19.2 25.6h-19.2c-6.4-6.4-12.8-12.8-12.8-19.2v-64zM454.4 800c-6.4 0-12.8-6.4-19.2-12.8-44.8-51.2-89.6-102.4-140.8-160-6.4 0-6.4-6.4-12.8-19.2 0-12.8 0-19.2 6.4-25.6 6.4-6.4 6.4-6.4 19.2-12.8 6.4 0 12.8 0 19.2 6.4 38.4 44.8 76.8 89.6 115.2 128l6.4 6.4h12.8l12.8-6.4c12.8-12.8 19.2-25.6 32-38.4 51.2-64 108.8-121.6 160-185.6l32-32c6.4 0 12.8-6.4 19.2-6.4h6.4c12.8 0 19.2 6.4 19.2 19.2 6.4 12.8 0 25.6-6.4 32L480 787.2c-12.8 6.4-19.2 12.8-25.6 12.8z" /></svg>