<?xml version="1.0" standalone="no"?><!DOCTYPE svg PUBLIC "-//W3C//DTD SVG 1.1//EN" "http://www.w3.org/Graphics/SVG/1.1/DTD/svg11.dtd"><svg t="1554212225876" class="icon" style="" viewBox="0 0 1024 1024" version="1.1" xmlns="http://www.w3.org/2000/svg" p-id="1990" xmlns:xlink="http://www.w3.org/1999/xlink" width="200" height="200"><defs><style type="text/css"></style></defs><path d="M485.7 852.6H119c-11 0-20-9-20-20v-387c0-5.5 4.5-10 10-10s10 4.5 10 10v387h366.7c5.5 0 10 4.5 10 10s-4.5 10-10 10zM745 453.8c-5.5 0-10-4.5-10-10V148.6h-84.9c-5.5 0-10-4.5-10-10s4.5-10 10-10H735c11 0 20 9 20 20v295.2c0 5.5-4.5 10-10 10zM109 332.6c-5.5 0-10-4.5-10-10v-174c0-11 9-20 20-20h84.2c5.5 0 10 4.5 10 10s-4.5 10-10 10H119v174c0 5.5-4.5 10-10 10z m448.1-184H294.7c-5.5 0-10-4.5-10-10s4.5-10 10-10h262.5c5.5 0 10 4.5 10 10s-4.5 10-10.1 10z" p-id="1991"></path><path d="M108 385.6m-16 0a16 16 0 1 0 32 0 16 16 0 1 0-32 0Z" p-id="1992"></path><path d="M580 192.6c-16.5 0-30-13.4-30-30v-68c0-8 3.1-15.5 8.8-21.2 5.7-5.7 13.2-8.8 21.2-8.8h44c16.5 0 30 13.4 30 30v68c0 8-3.1 15.5-8.8 21.2-5.7 5.7-13.2 8.8-21.2 8.8h-44z m0-108c-2.7 0-5.2 1-7.1 2.9s-2.9 4.4-2.9 7.1v68c0 5.5 4.5 10 10 10h44c2.7 0 5.2-1 7.1-2.9s2.9-4.4 2.9-7.1v-68c0-5.5-4.5-10-10-10h-44z m-350 108c-16.5 0-30-13.4-30-30v-68c0-16.5 13.4-30 30-30h44c16.5 0 30 13.5 30 30v68c0 16.5-13.5 30-30 30h-44z m0-108c-5.5 0-10 4.5-10 10v68c0 5.5 4.5 10 10 10h44c5.5 0 10-4.5 10-10v-68c0-5.5-4.5-10-10-10h-44z" p-id="1993"></path><path d="M101 255.6h637" p-id="1994"></path><path d="M101 245.6h637v20H101zM544.2 763.3H197.5c-3.8 0-7.3-1.5-10-4.1-2.7-2.7-4.1-6.2-4.1-10V349.1c0-3.8 1.5-7.3 4.1-10 2.7-2.7 6.2-4.1 10-4.2h459.1c7.8 0 14.1 6.4 14.1 14.1v88.6c0 5.5-4.5 10-10 10s-10-4.5-10-10V355H203.3v388.3h340.9c5.5 0 10 4.5 10 10s-4.5 10-10 10zM203.3 349.1z" p-id="1995"></path><path d="M197.8 448.8l349.2-0.2" p-id="1996"></path><path d="M197.8 458.8c-5.5 0-10-4.5-10-10s4.5-10 10-10l349.2-0.2c5.5 0 10 4.5 10 10s-4.5 10-10 10l-349.2 0.2z" p-id="1997"></path><path d="M197.8 552.6h347" p-id="1998"></path><path d="M544.8 562.6h-347c-5.5 0-10-4.5-10-10s4.5-10 10-10h347c5.5 0 10 4.5 10 10s-4.4 10-10 10z" p-id="1999"></path><path d="M197.8 656.5h347" p-id="2000"></path><path d="M544.8 666.5h-347c-5.5 0-10-4.5-10-10s4.5-10 10-10h347c5.5 0 10 4.5 10 10s-4.4 10-10 10z" p-id="2001"></path><path d="M303.6 351v396.2" p-id="2002"></path><path d="M303.6 757.2c-5.5 0-10-4.5-10-10V351c0-5.5 4.5-10 10-10s10 4.5 10 10v396.2c0 5.5-4.5 10-10 10z" p-id="2003"></path><path d="M427 351v396.2" p-id="2004"></path><path d="M427 757.2c-5.5 0-10-4.5-10-10V351c0-5.5 4.5-10 10-10s10 4.5 10 10v396.2c0 5.5-4.5 10-10 10z" p-id="2005"></path><path d="M546.7 351v396.2" p-id="2006"></path><path d="M546.7 757.2c-5.5 0-10-4.5-10-10V351c0-5.5 4.5-10 10-10s10 4.5 10 10v396.2c0 5.5-4.4 10-10 10z" p-id="2007"></path><path d="M607.2 959.4h-0.4c-2.7-0.1-5.2-1.3-6.9-3.2-0.2-0.2-15.6-17.1-30.9-34.5-33.2-38-33.2-41.5-33.2-45.9V458.2c0-12.1 9.8-21.9 21.9-21.9h346.8c12.1 0 21.9 9.8 21.9 21.9v66.9c0 5.5-4.5 10-10 10s-10-4.5-10-10v-66.9c0-1-0.8-1.9-1.9-1.9H557.6c-1 0-1.9 0.8-1.9 1.9v415.7c4.5 7.6 28.4 35.3 52 61.4l61-56.1c4-3.7 10.3-3.5 14 0.5l52.6 55.7 58.1-54.9c1.9-1.8 4.6-2.8 7.2-2.7 2.7 0.1 5.2 1.3 7 3.2l48.9 53.5c22.7-25.9 45.3-53.1 49.6-60.5 0-17.1-0.3-150.3-0.3-228.3 0-5.5 4.5-10 10-10s10 4.5 10 10c0 83 0.3 228.7 0.3 230.1 0 4.4 0 7.8-32.1 45.8-14.8 17.5-29.7 34.4-29.9 34.5-1.9 2.1-4.6 3.3-7.4 3.4h-0.1c-2.8 0-5.5-1.2-7.4-3.3l-49.6-54.3-58 54.8c-1.9 1.8-4.5 2.8-7.2 2.7-2.7-0.1-5.2-1.2-7-3.1l-52.6-55.8-61.2 56.3c-1.5 1.7-3.9 2.6-6.4 2.6zM906.8 873z m-351.6-0.1z" p-id="2008"></path><path d="M916 588.6m-16 0a16 16 0 1 0 32 0 16 16 0 1 0-32 0Z" p-id="2009"></path><path d="M682.5 737.1c-2.6 0-5.3-1-7.2-3.1l-64-67c-3.8-4-3.7-10.3 0.3-14.1 4-3.8 10.3-3.7 14.1 0.3l57.7 60.4 151.9-120.8c4.3-3.4 10.6-2.7 14.1 1.6 3.4 4.3 2.7 10.6-1.6 14.1L688.8 735c-1.9 1.4-4.1 2.1-6.3 2.1z" p-id="2010"></path></svg>