<?xml version="1.0" standalone="no"?><!DOCTYPE svg PUBLIC "-//W3C//DTD SVG 1.1//EN" "http://www.w3.org/Graphics/SVG/1.1/DTD/svg11.dtd"><svg class="icon" width="200px" height="200.00px" viewBox="0 0 1024 1024" version="1.1" xmlns="http://www.w3.org/2000/svg"><path d="M274.952 692.856c-21.222222-12.991111-40.408-27.562667-57.497778-44.644444-3.607111-3.384-7.216-6.765333-10.823111-10.147556-10.008889-13.240889-21.459556-25.666667-30.44-39.909333-14.072889-22.322667-24.193778-47.645333-33.145778-75.085334-4.195556-12.859556-4.905778-26.951111-8.117333-40.586666l-0.676444-13.528889c-3.433778-15.135111-1.882667-43.333333 1.352888-57.497778l1.352889-13.528889c3.346667-12.956444 5.32-26.132444 9.470223-38.557333 10.974222-32.852444 27.369778-61.262222 45.998222-86.584889 4.457778-6.059556 11.070222-10.967111 15.558222-16.911111 6.464-8.56 14.437333-15.860444 22.999111-22.322667 8.001778-6.04 15.320889-13.759111 23.675556-19.616889 24.745778-17.351111 53.457778-29.544889 85.232-39.910222 14.883556-4.855111 31.146667-5.072 47.351111-8.793778 6.706667-1.540444 14.72 0.062222 20.969778-1.352889 4.283556-0.969778 11.647111-0.015111 14.881777 0.676445h13.528889c8.919111 2.031111 19.463111 2.032889 27.734222 4.058666 8.050667 1.971556 14.769778 1.619556 22.321778 4.058667 28.430222 9.180444 54.8 18.596444 77.792 33.145778 8.139556 5.151111 16.557333 11.082667 24.352 16.911111l8.794667 9.470222c15.824 11.523556 39.479111 6.833778 49.380444-6.764444 2.208889-3.034667 4.08-7.150222 5.411556-10.823111 10.578667-29.180444-23.885333-47.479111-38.557333-57.497778-54.584-37.275556-120.081778-63.321778-213.756445-61.556445-3.786667 2.370667-24.294222 1.266667-30.44 2.705778-20.374222 4.771556-40.260444 6.661333-58.850667 12.852445-35.043556 11.670222-67.711111 27.228444-95.378666 46.674666-8.998222 6.325333-17.536889 13.629333-26.381334 20.293334-3.427556 2.583111-6.063111 6.897778-9.470222 9.470222-12.263111 9.261333-26.663111 24.225778-35.851555 36.528-20.049778 26.844444-38.527111 55.121778-52.762667 87.937778-8.221333 18.952-12.975111 39.810667-18.940444 60.88-2.208889 7.799111-1.408889 14.822222-3.382223 22.999111-7.892444 32.711111-5.301333 88.209778 2.705778 118.377778 4.709333 17.743111 6.370667 34.280889 12.852445 50.056888 26.057778 63.426667 59.707556 117.567111 110.936888 155.583112 8.952889 6.642667 17.495111 14.892444 27.057778 20.968888 9.072889 5.767111 18.380444 9.847111 27.734222 15.559112 8.824 5.389333 18.381333 10.728889 29.763556 13.528 5.672889 1.395556 12.184-0.810667 15.558222-2.029334 20.323556-7.336889 33.523556-32.136889 17.587556-54.114666-8.103111-11.175111-25.930667-13.656-37.881778-20.971556z m145.435556-231.343111l14.881777-14.205333c5.825778-7.717333 10.240889-16.667556 12.852445-27.734223V309.989333c0-34.949333-1.697778-55.831111-37.204445-55.468444-1.680889 1.108444-3.843556 0.539556-6.088 1.352889-3.920889 1.420444-8.294222 4.311111-11.499555 6.764444-3.410667 2.610667-7.239111 9.264889-8.793778 13.528889-0.816889 2.240889-0.246222 4.406222-1.352889 6.088v125.142222l-4.735111 4.058667c-3.104889 3.270222-5.613333 6.967111-8.793778 10.146667l-7.440889 6.764444c-13.395556 17.726222-31.912889 30.986667-45.321777 48.704-5.749333 7.596444-15.136 12.712889-20.293334 20.969778-13.036444 20.871111 1.703111 44.181333 19.616889 49.380444 20.788444 6.033778 36.319111-12.892444 43.968889-22.999111l14.881778-14.205333c13.397333-17.726222 31.911111-30.988444 45.321778-48.704z m537.773333 407.219555l-0.676445-12.852444c-3.039111-13.484444-4.733333-27.841778-8.794666-39.911111-4.103111-12.198222-6.626667-23.260444-11.499556-34.498667-20.227556-46.648-53.28-86.650667-92.672889-114.319111-12.467556-8.757333-26.062222-16.488-39.910222-23.675555-6.256-3.246222-15.761778-4.878222-20.969778-9.470223-1.167111-0.435556-0.662222-0.131556-1.352889-0.675555 7.652444-2.692444 22.722667-21.522667 27.734223-28.411556 11.944889-16.416 22.592-33.963556 29.763555-55.468444 3.585778-10.751111 3.244444-21.053333 6.088-33.145778 2.458667-10.456 2.592889-32.509333 0-43.292444-2.222222-9.242667-3.134222-18.876444-6.088-27.734223-23.452444-70.338667-83.368-125.740444-179.257778-123.789333-3.245333 2.033778-9.357333 0.375111-13.528888 1.352889-9.250667 2.168-18.874667 3.155556-27.734223 6.088-23.092444 7.643556-42.622222 19.280889-60.203555 32.469333-28.312889 21.237333-48.545778 57.809778-59.528 96.731556-2.611556 9.256889-1.049778 18.039111-3.382222 28.410666-2.999111 13.341333-0.162667 32.340444 2.705777 43.292445 1.869333 7.135111 1.864 12.991111 4.058667 19.616889 7.690667 23.223111 19.460444 41.359111 32.468444 58.850666 6.539556 8.795556 14.541333 18.240889 23.676445 24.352v0.677334c-81.684444 33.936-137.016 88.974222-165.728889 175.874666-4.971556 15.045333-5.759111 31.548444-9.470222 48.027556l-0.676445 16.234667c-0.975111 6.666667-1.967111 19.041778 0 25.704889 2.815111 9.537778 9.233778 17.623111 16.911111 22.322666 13.155556 8.052444 32.240889 2.817778 40.586667-5.411555 5.613333-5.535111 9.314667-11.158222 11.499556-20.293334l-0.676445-26.382222c4.628444-21.169778 6.112-40.544889 13.528889-58.173333 22.168889-52.694222 61.299556-89.776 113.642667-112.289778 8.631111-3.712 16.918222-5.048889 26.381333-8.118222 8.448-2.739556 19.024889-4.564444 28.410667-6.763556 6.088-0.451556 12.176889-0.901333 18.264889-1.352 5.614222-1.225778 16.745778-1.687111 21.646222-0.677333h16.234667c16.896 3.637333 33.595556 3.854222 48.704 8.793778 61.402667 20.078222 109.930667 58.413333 134.612444 114.996444 8.311111 19.052444 11.761778 39.133333 16.910222 62.232889 1.200889 5.385778 1.007111 12.823111 0 17.586667-2.224 10.524444 2.900444 21.062222 6.764445 26.382222 7.689778 10.583111 29.796444 18.941333 45.321777 9.470222 7.695111-4.694222 14.071111-12.792 16.910223-22.322667 2.44-8.183111 0.993778-22.760889-0.673778-30.44zM776.872889 519.010667c-2.176889 8.328889-4.811556 16.749333-8.117333 24.352-12.018667 27.637333-37.590222 47.746667-67.644445 57.496889-7.727111 2.506667-16.590222 2.227556-25.028444 4.058666-14.553778 3.16-38.448-5.714667-47.351111-9.470222-31.523556-13.297778-50.389333-36.502222-60.88-71.025778-3.556444-11.704889-6.077333-30.303111-2.705778-44.645333 1.584-6.740444 2.856889-14.008 5.411555-20.293333 12.024889-29.593778 33.374222-50.816889 62.908445-62.909334 6.280889-2.571556 13.557333-3.8 20.293333-5.411555 3.923556-0.938667 9.734222 0.519111 12.852445-1.352889 55.752 0 87.558222 28.870222 104.172444 68.320889 6.339556 15.048 11.466667 40.311111 6.088889 60.88z" /></svg>