<?xml version="1.0" standalone="no"?><!DOCTYPE svg PUBLIC "-//W3C//DTD SVG 1.1//EN" "http://www.w3.org/Graphics/SVG/1.1/DTD/svg11.dtd"><svg class="icon" width="200px" height="200.00px" viewBox="0 0 1024 1024" version="1.1" xmlns="http://www.w3.org/2000/svg"><path d="M759.374846 756.665373l-224.524961-112.172164 67.736815-98.624802c3.251367-4.696419 5.057682-10.295996 5.057682-16.076204V372.1009c0-102.598695-82.367966-183.160346-187.314871-183.160346S233.014641 269.502205 233.014641 372.1009v157.510672c0 5.96084 1.806315 11.560416 5.238314 16.437467l69.72376 98.082907-234.09843 112.172164c-9.934733 4.696419-16.076204 14.631152-16.076204 25.649674v99.889222c0 15.714941 12.644205 28.359146 28.359147 28.359146h660.569412c15.714941 0 28.359146-12.644205 28.359147-28.359146v-99.889222c0-10.657259-5.96084-20.591992-15.714941-25.288411z m-41.003352 96.818487H114.520374v-53.647557L363.069324 680.800141c7.586523-3.61263 13.1861-10.476627 15.173047-18.605045 2.167578-8.128418 0.541895-16.79873-4.335156-23.482095l-83.99365-118.133005V372.1009c0-70.80755 57.440818-126.442053 130.596578-126.442054s130.596578 55.453872 130.596578 126.442054v148.659728l-81.284177 118.313636c-4.696419 6.683366-6.141471 15.173046-4.154525 23.120832s7.405892 14.631152 14.811783 18.243782l237.891692 118.85553v54.189452z m0 0"  /><path d="M949.399189 686.580349L724.874228 574.408185l67.736815-98.624802c3.251367-4.696419 5.057682-10.295996 5.057682-16.076204v-157.510672c0-102.598695-82.367966-183.160346-187.314871-183.160345-20.41136 0-40.461457 3.070736-59.608396 9.212206l17.340624 54.00882c13.547363-4.335156 27.63662-6.502734 42.267772-6.502734 73.155759 0 130.596578 55.453872 130.596578 126.442053v148.659729l-81.284177 118.313635c-4.696419 6.683366-6.141471 15.173046-4.154525 23.120833s7.405892 14.631152 14.811784 18.243782l237.891692 118.85553v54.00882h-70.80755v56.718292h99.166696c15.714941 0 28.359146-12.644205 28.359146-28.359146v-99.889222c0.180632-10.657259-5.96084-20.591992-15.534309-25.288411z m0 0"  /></svg>